<svg width="18" height="18" viewBox="0 0 18 18" fill="none" xmlns="http://www.w3.org/2000/svg">
<path d="M9 17.4736C7.84342 17.4736 6.75326 17.2523 5.72949 16.8096C4.71126 16.3669 3.81201 15.7554 3.03174 14.9751C2.25146 14.1948 1.63997 13.2956 1.19727 12.2773C0.754557 11.2536 0.533203 10.1634 0.533203 9.00684C0.533203 7.85026 0.754557 6.76286 1.19727 5.74463C1.63997 4.72087 2.2487 3.81885 3.02344 3.03857C3.80371 2.2583 4.70296 1.64681 5.72119 1.2041C6.74495 0.761393 7.83512 0.540039 8.9917 0.540039C10.1483 0.540039 11.2384 0.761393 12.2622 1.2041C13.286 1.64681 14.188 2.2583 14.9683 3.03857C15.7485 3.81885 16.36 4.72087 16.8027 5.74463C17.2454 6.76286 17.4668 7.85026 17.4668 9.00684C17.4668 10.1634 17.2454 11.2536 16.8027 12.2773C16.36 13.2956 15.7485 14.1948 14.9683 14.9751C14.188 15.7554 13.286 16.3669 12.2622 16.8096C11.244 17.2523 10.1566 17.4736 9 17.4736ZM9 16.0625C9.97949 16.0625 10.8953 15.8799 11.7476 15.5146C12.5998 15.1494 13.3496 14.6458 13.9971 14.0039C14.6445 13.3564 15.1481 12.6066 15.5078 11.7544C15.873 10.9022 16.0557 9.98633 16.0557 9.00684C16.0557 8.02734 15.873 7.11149 15.5078 6.25928C15.1426 5.40706 14.6362 4.65723 13.9888 4.00977C13.3468 3.3623 12.597 2.85872 11.7393 2.49902C10.887 2.13379 9.97119 1.95117 8.9917 1.95117C8.01221 1.95117 7.09635 2.13379 6.24414 2.49902C5.39193 2.85872 4.64486 3.3623 4.00293 4.00977C3.361 4.65723 2.85742 5.40706 2.49219 6.25928C2.13249 7.11149 1.95264 8.02734 1.95264 9.00684C1.95264 9.98633 2.13249 10.9022 2.49219 11.7544C2.85742 12.6066 3.361 13.3564 4.00293 14.0039C4.65039 14.6458 5.40023 15.1494 6.25244 15.5146C7.10465 15.8799 8.02051 16.0625 9 16.0625ZM8.9917 13.4644C8.38851 13.4644 7.81852 13.3481 7.28174 13.1157C6.75049 12.8778 6.27734 12.554 5.8623 12.1445C5.4528 11.735 5.13184 11.2619 4.89941 10.7251C4.66699 10.1883 4.55078 9.61833 4.55078 9.01514C4.55078 8.41195 4.66699 7.84196 4.89941 7.30518C5.13184 6.76839 5.4528 6.29525 5.8623 5.88574C6.27181 5.47624 6.74495 5.15527 7.28174 4.92285C7.81852 4.6849 8.38851 4.56592 8.9917 4.56592C9.60042 4.56592 10.1704 4.6849 10.7017 4.92285C11.2384 5.15527 11.7116 5.47624 12.1211 5.88574C12.5306 6.29525 12.8516 6.76839 13.084 7.30518C13.3219 7.84196 13.4409 8.41195 13.4409 9.01514C13.4409 9.62386 13.3247 10.1966 13.0923 10.7334C12.8599 11.2646 12.5389 11.735 12.1294 12.1445C11.7199 12.554 11.2467 12.8778 10.71 13.1157C10.1732 13.3481 9.60042 13.4644 8.9917 13.4644ZM8.9917 12.1694C9.56722 12.1694 10.0929 12.0283 10.5688 11.7461C11.0448 11.4583 11.4266 11.0765 11.7144 10.6006C12.0021 10.1191 12.146 9.59066 12.146 9.01514C12.146 8.44515 12.0021 7.9222 11.7144 7.44629C11.4266 6.96484 11.0448 6.58024 10.5688 6.29248C10.0929 6.00472 9.56722 5.86084 8.9917 5.86084C8.42171 5.86084 7.896 6.00472 7.41455 6.29248C6.93864 6.57471 6.5568 6.95654 6.26904 7.43799C5.98682 7.9139 5.8457 8.43962 5.8457 9.01514C5.8457 9.58512 5.98958 10.1108 6.27734 10.5923C6.5651 11.0682 6.94694 11.45 7.42285 11.7378C7.89876 12.0256 8.42171 12.1694 8.9917 12.1694Z" fill="url(#paint0_linear_204_528)"/>
<defs>
<linearGradient id="paint0_linear_204_528" x1="-1" y1="-1" x2="20.4305" y2="21.9612" gradientUnits="userSpaceOnUse">
<stop stop-color="white"/>
<stop offset="1" stop-color="white" stop-opacity="0"/>
</linearGradient>
</defs>
</svg>
