<svg width="26" height="29" viewBox="0 0 26 29" fill="none" xmlns="http://www.w3.org/2000/svg">
<path d="M13.0234 2.78516C12.332 2.78516 11.7812 2.23438 11.7812 1.54297C11.7812 0.863281 12.3437 0.300781 13.0234 0.300781C13.7148 0.300781 14.2539 0.851563 14.2539 1.54297C14.2539 2.24609 13.7266 2.78516 13.0234 2.78516ZM7.42187 6.00781C6.73047 6.00781 6.17969 5.45703 6.17969 4.76563C6.17969 4.08594 6.75391 3.52344 7.42187 3.52344C8.11328 3.52344 8.66406 4.07422 8.66406 4.76563C8.66406 5.46875 8.125 6.00781 7.42187 6.00781ZM18.6133 6.00781C17.9219 6.00781 17.3711 5.45703 17.3711 4.76563C17.3711 4.08594 17.9453 3.52344 18.6133 3.52344C19.3047 3.52344 19.8555 4.07422 19.8555 4.76563C19.8555 5.46875 19.3164 6.00781 18.6133 6.00781ZM13.0234 9.71094C12.0977 9.71094 11.3477 8.96094 11.3477 8.03516C11.3477 7.13281 12.1094 6.37109 13.0234 6.37109C13.9375 6.37109 14.6875 7.12109 14.6875 8.03516C14.6875 8.97266 13.9492 9.71094 13.0234 9.71094ZM1.83203 9.27734C1.14062 9.27734 0.589844 8.72656 0.589844 8.03516C0.589844 7.36719 1.15234 6.80469 1.83203 6.80469C2.52344 6.80469 3.0625 7.35547 3.0625 8.03516C3.0625 8.73828 2.53516 9.27734 1.83203 9.27734ZM24.168 9.27734C23.4766 9.27734 22.9258 8.72656 22.9258 8.03516C22.9258 7.36719 23.4883 6.80469 24.168 6.80469C24.8594 6.80469 25.4102 7.34375 25.4102 8.03516C25.4102 8.73828 24.8711 9.27734 24.168 9.27734ZM7.42187 12.957C6.50781 12.957 5.75781 12.207 5.75781 11.2813C5.75781 10.3789 6.51953 9.60547 7.42187 9.60547C8.34766 9.60547 9.09766 10.3555 9.09766 11.2813C9.09766 12.2188 8.35937 12.957 7.42187 12.957ZM18.6133 12.957C17.6992 12.957 16.9492 12.207 16.9492 11.2813C16.9492 10.3789 17.7109 9.60547 18.6133 9.60547C19.5391 9.60547 20.2891 10.3555 20.2891 11.2813C20.2891 12.2188 19.5508 12.957 18.6133 12.957ZM13.0234 16.4961C11.9453 16.4961 11.0664 15.6055 11.0664 14.5391C11.0664 13.4727 11.957 12.582 13.0234 12.582C14.0898 12.582 14.9805 13.4609 14.9805 14.5391C14.9805 15.6289 14.1133 16.4961 13.0234 16.4961ZM1.83203 15.7813C1.14062 15.7813 0.589844 15.2305 0.589844 14.5391C0.589844 13.8594 1.15234 13.2969 1.83203 13.2969C2.52344 13.2969 3.0625 13.8477 3.0625 14.5391C3.0625 15.2305 2.52344 15.7813 1.83203 15.7813ZM24.168 15.7813C23.4766 15.7813 22.9258 15.2305 22.9258 14.5391C22.9258 13.8594 23.4883 13.2969 24.168 13.2969C24.8594 13.2969 25.4102 13.8477 25.4102 14.5391C25.4102 15.2422 24.8711 15.7813 24.168 15.7813ZM7.42187 19.4727C6.50781 19.4727 5.75781 18.7109 5.75781 17.7969C5.75781 16.8828 6.51953 16.1211 7.42187 16.1211C8.34766 16.1211 9.09766 16.8711 9.09766 17.7969C9.09766 18.7344 8.35937 19.4727 7.42187 19.4727ZM18.6133 19.4727C17.6992 19.4727 16.9492 18.7109 16.9492 17.7969C16.9492 16.8828 17.7109 16.1211 18.6133 16.1211C19.5391 16.1211 20.2891 16.8711 20.2891 17.7969C20.2891 18.7344 19.5508 19.4727 18.6133 19.4727ZM13.0234 22.707C12.0977 22.707 11.3477 21.957 11.3477 21.0313C11.3477 20.1289 12.1211 19.3672 13.0234 19.3672C13.9375 19.3672 14.6875 20.1172 14.6875 21.0313C14.6875 21.9688 13.9492 22.707 13.0234 22.707ZM1.83203 22.2734C1.14062 22.2734 0.589844 21.7227 0.589844 21.0313C0.589844 20.3633 1.15234 19.8008 1.83203 19.8008C2.52344 19.8008 3.0625 20.3516 3.0625 21.0313C3.0625 21.7344 2.53516 22.2734 1.83203 22.2734ZM24.168 22.2734C23.4766 22.2734 22.9258 21.7227 22.9258 21.0313C22.9258 20.3633 23.4883 19.8008 24.168 19.8008C24.8594 19.8008 25.4102 20.3516 25.4102 21.0313C25.4102 21.7461 24.8711 22.2734 24.168 22.2734ZM7.42187 25.543C6.73047 25.543 6.17969 25.0039 6.17969 24.3125C6.17969 23.6328 6.75391 23.0703 7.42187 23.0703C8.11328 23.0703 8.66406 23.6211 8.66406 24.3125C8.66406 25.0156 8.125 25.543 7.42187 25.543ZM18.6133 25.543C17.9219 25.543 17.3711 25.0039 17.3711 24.3125C17.3711 23.6328 17.9453 23.0703 18.6133 23.0703C19.3047 23.0703 19.8555 23.6211 19.8555 24.3125C19.8555 25.0156 19.3164 25.543 18.6133 25.543ZM13.0234 28.7773C12.332 28.7773 11.7812 28.2266 11.7812 27.5352C11.7812 26.8555 12.3437 26.293 13.0234 26.293C13.7148 26.293 14.2539 26.8438 14.2539 27.5352C14.2539 28.2383 13.7266 28.7773 13.0234 28.7773Z" fill="url(#paint0_linear_216_2520)"/>
<defs>
<linearGradient id="paint0_linear_216_2520" x1="13" y1="3.51358e-08" x2="13" y2="29" gradientUnits="userSpaceOnUse">
<stop stop-color="white"/>
<stop offset="1" stop-color="white" stop-opacity="0.5"/>
</linearGradient>
</defs>
</svg>
