<svg width="12" height="20" viewBox="0 0 12 20" fill="none" xmlns="http://www.w3.org/2000/svg">
<path d="M10.6526 11.256L11.2073 7.63887H7.73581V5.28314C7.71166 5.01301 7.74854 4.74091 7.84372 4.48695C7.93889 4.23299 8.08994 4.00367 8.28568 3.81595C8.48142 3.62823 8.71685 3.4869 8.97457 3.40242C9.23228 3.31794 9.50569 3.29247 9.77458 3.32789H11.3529V0.256885C10.4264 0.107301 9.49017 0.0257038 8.55174 0.0127459C7.90604 -0.0364188 7.25743 0.0570303 6.65187 0.286471C6.04631 0.515912 5.49863 0.875728 5.04762 1.34042C4.59662 1.80512 4.25334 2.36332 4.04211 2.97547C3.83087 3.58762 3.75686 4.23873 3.8253 4.88267V7.63887H0.647217V11.256H3.8253V20H7.73581V11.256H10.6526Z" fill="#101010"/>
</svg>
