<svg width="20" height="20" viewBox="0 0 20 20" fill="none" xmlns="http://www.w3.org/2000/svg">
<path d="M10.0127 4.87657C8.99834 4.87509 8.00631 5.17453 7.16217 5.73701C6.31802 6.29949 5.65969 7.09972 5.27047 8.03646C4.88126 8.9732 4.77865 10.0043 4.97564 10.9994C5.17263 11.9945 5.66035 12.9088 6.3771 13.6266C7.09385 14.3444 8.00741 14.8334 9.00219 15.0319C9.99697 15.2303 11.0283 15.1292 11.9656 14.7414C12.9029 14.3535 13.7041 13.6964 14.2678 12.853C14.8315 12.0097 15.1324 11.0181 15.1324 10.0037C15.1334 9.33079 15.0017 8.66424 14.7448 8.04223C14.488 7.42022 14.111 6.85494 13.6355 6.37874C13.16 5.90254 12.5953 5.52476 11.9737 5.267C11.352 5.00924 10.6857 4.87657 10.0127 4.87657ZM10.0127 13.336C9.35333 13.3375 8.70833 13.1434 8.15935 12.7781C7.61037 12.4128 7.1821 11.8929 6.92874 11.2842C6.67537 10.6754 6.60831 10.0052 6.73604 9.35826C6.86377 8.71137 7.18055 8.11691 7.64628 7.65013C8.11201 7.18335 8.70575 6.86523 9.35235 6.73605C9.99896 6.60686 10.6694 6.67241 11.2787 6.9244C11.888 7.17639 12.4089 7.6035 12.7754 8.15165C13.1419 8.69981 13.3375 9.34437 13.3375 10.0037C13.3355 10.8856 12.9848 11.7309 12.362 12.3552C11.7391 12.9795 10.8946 13.3321 10.0127 13.336ZM16.5373 4.65908C16.5373 4.89542 16.4672 5.12644 16.3359 5.32295C16.2046 5.51945 16.018 5.67261 15.7997 5.76305C15.5813 5.85349 15.3411 5.87716 15.1093 5.83105C14.8775 5.78494 14.6646 5.67114 14.4974 5.50402C14.3303 5.33691 14.2165 5.124 14.1704 4.8922C14.1243 4.66041 14.148 4.42015 14.2384 4.20181C14.3289 3.98346 14.482 3.79684 14.6785 3.66554C14.875 3.53424 15.106 3.46416 15.3424 3.46416C15.4994 3.46383 15.6549 3.49451 15.8 3.55445C15.9452 3.61438 16.077 3.70238 16.1881 3.81341C16.2991 3.92443 16.3871 4.05629 16.447 4.20142C16.507 4.34654 16.5376 4.50207 16.5373 4.65908ZM19.9321 5.87401C19.9649 4.31954 19.3848 2.81458 18.3172 1.68427C17.1847 0.620092 15.6812 0.0405804 14.1275 0.0693707C12.4776 -0.0231236 7.52787 -0.0231236 5.87797 0.0693707C4.32322 0.0391236 2.81841 0.618794 1.68573 1.68427C0.619719 2.8156 0.0399069 4.31987 0.0708355 5.87401C-0.0216587 7.52391 -0.0216587 12.4736 0.0708355 14.1235C0.0373612 15.6788 0.617485 17.1848 1.68573 18.3157C2.81865 19.3792 4.32186 19.9586 5.87547 19.9306C7.52537 20.0231 12.4751 20.0231 14.125 19.9306C15.6794 19.9634 17.1844 19.3834 18.3147 18.3157C19.3789 17.1832 19.9584 15.6797 19.9296 14.126C20.0221 12.4761 20.0221 7.5314 19.9296 5.87651L19.9321 5.87401ZM17.7997 15.9084C17.63 16.3383 17.3738 16.7287 17.047 17.0555C16.7202 17.3824 16.3297 17.6386 15.8998 17.8083C13.9639 18.2023 11.9838 18.3343 10.0127 18.2007C8.03868 18.3297 6.05627 18.1943 4.11808 17.7983C3.68819 17.6286 3.29773 17.3724 2.97092 17.0455C2.64411 16.7187 2.38791 16.3283 2.2182 15.8984C1.81676 13.9609 1.67802 11.9782 1.80573 10.0037C1.67678 8.02972 1.81214 6.04731 2.2082 4.10912C2.37791 3.67922 2.63411 3.28877 2.96092 2.96195C3.28773 2.63514 3.67819 2.37894 4.10808 2.20924C6.04914 1.8094 8.03525 1.67319 10.0127 1.80426C11.9867 1.67532 13.9692 1.81067 15.9073 2.20674C16.3372 2.37644 16.7277 2.63264 17.0545 2.95945C17.3813 3.28627 17.6375 3.67672 17.8072 4.10662C18.2053 6.04453 18.3407 8.02721 18.2097 10.0013C18.3395 11.9798 18.2016 13.9668 17.7997 15.9084Z" fill="white"/>
</svg>
