<svg width="24" height="24" viewBox="0 0 24 24" fill="none" xmlns="http://www.w3.org/2000/svg">
<path d="M12 2C7.6 2 4 5.6 4 10C4 15.4 11 21.5 11.3 21.8C11.7 22.1 12.2 22.1 12.6 21.8C13 21.5 20 15.4 20 10C20 5.6 16.4 2 12 2ZM12 14C9.8 14 8 12.2 8 10C8 7.8 9.8 6 12 6C14.2 6 16 7.8 16 10C16 12.2 14.2 14 12 14Z" fill="url(#paint0_linear_233_597)"/>
<defs>
<linearGradient id="paint0_linear_233_597" x1="12" y1="2" x2="12" y2="22.025" gradientUnits="userSpaceOnUse">
<stop stop-color="#81CDCE"/>
<stop offset="0.484375" stop-color="#83AF66"/>
<stop offset="1" stop-color="#D58E56"/>
</linearGradient>
</defs>
</svg>
