<svg xmlns="http://www.w3.org/2000/svg" width="24" height="24" viewBox="0 0 24 24" fill="none">
    <path fill-rule="evenodd" clip-rule="evenodd" d="M2.12509 7.01196C2.12495 7.00251 2.12497 6.99305 2.12514 6.98359C2.13397 5.40332 3.41775 4.125 5.00009 4.125H19.0001C20.5826 4.125 21.8665 5.40363 21.875 6.98417C21.8751 6.98944 21.8751 6.99472 21.8751 7V7.01202V17C21.8751 18.5878 20.5879 19.875 19.0001 19.875H5.00009C3.41227 19.875 2.12509 18.5878 2.12509 17V7.01196ZM3.9543 6.58452L12.0001 11.9484L20.0459 6.58452C19.8806 6.16885 19.4747 5.875 19.0001 5.875H5.00009C4.52552 5.875 4.11959 6.16885 3.9543 6.58452ZM3.87509 8.63495V17C3.87509 17.6213 4.37877 18.125 5.00009 18.125H19.0001C19.6214 18.125 20.1251 17.6213 20.1251 17V8.63495L12.4855 13.728C12.1915 13.924 11.8086 13.924 11.5147 13.728L3.87509 8.63495Z" fill="url(#paint0_linear_216_2436)"/>
    <path fill-rule="evenodd" clip-rule="evenodd" d="M2.12509 7.01196C2.12495 7.00251 2.12497 6.99305 2.12514 6.98359C2.13397 5.40332 3.41775 4.125 5.00009 4.125H19.0001C20.5826 4.125 21.8665 5.40363 21.875 6.98417C21.8751 6.98944 21.8751 6.99472 21.8751 7V7.01202V17C21.8751 18.5878 20.5879 19.875 19.0001 19.875H5.00009C3.41227 19.875 2.12509 18.5878 2.12509 17V7.01196ZM3.9543 6.58452L12.0001 11.9484L20.0459 6.58452C19.8806 6.16885 19.4747 5.875 19.0001 5.875H5.00009C4.52552 5.875 4.11959 6.16885 3.9543 6.58452ZM3.87509 8.63495V17C3.87509 17.6213 4.37877 18.125 5.00009 18.125H19.0001C19.6214 18.125 20.1251 17.6213 20.1251 17V8.63495L12.4855 13.728C12.1915 13.924 11.8086 13.924 11.5147 13.728L3.87509 8.63495Z" fill="white" fill-opacity="0.2"/>
    <defs>
    <linearGradient id="paint0_linear_216_2436" x1="12" y1="4.125" x2="12" y2="19.875" gradientUnits="userSpaceOnUse">
    <stop stop-color="#C7C8CC"/>
    <stop offset="1" stop-color="#6D707E"/>
    </linearGradient>
    </defs>
    </svg>