<svg width="18" height="16" viewBox="0 0 18 16" fill="none" xmlns="http://www.w3.org/2000/svg">
<path d="M17.3571 0.799805H0.642857C0.472361 0.799805 0.308848 0.868766 0.188288 0.991517C0.0677294 1.11427 0 1.28075 0 1.45435V14.5453C0 14.7189 0.0677294 14.8853 0.188288 15.0081C0.308848 15.1308 0.472361 15.1998 0.642857 15.1998H17.3571C17.5276 15.1998 17.6912 15.1308 17.8117 15.0081C17.9323 14.8853 18 14.7189 18 14.5453V1.45435C18 1.28075 17.9323 1.11427 17.8117 0.991517C17.6912 0.868766 17.5276 0.799805 17.3571 0.799805ZM9.39455 9.17103C9.28173 9.26033 9.1429 9.30881 9 9.30881C8.8571 9.30881 8.71827 9.26033 8.60545 9.17103L2.31228 4.18749L3.10138 3.15412L9 7.82512L14.8986 3.15412L15.6877 4.18749L9.39455 9.17103Z" fill="url(#paint0_linear_233_560)" fill-opacity="0.9"/>
<defs>
<linearGradient id="paint0_linear_233_560" x1="-1.3411e-07" y1="7.99981" x2="18" y2="7.99981" gradientUnits="userSpaceOnUse">
<stop stop-color="#8CE3E6"/>
<stop offset="0.5" stop-color="#91BC5D"/>
<stop offset="1" stop-color="#F3985B"/>
</linearGradient>
</defs>
</svg>
