<svg width="66" height="66" viewBox="0 0 66 66" fill="none" xmlns="http://www.w3.org/2000/svg">
<circle cx="33" cy="33" r="32" stroke="url(#paint0_linear_233_550)" stroke-width="2"/>
<path d="M40.9602 37.8312C40.7621 37.6202 40.0627 36.9964 38.7771 36.171C37.4819 35.3385 36.5268 34.8193 36.2528 34.6983C36.2287 34.6876 36.2021 34.6836 36.1759 34.6869C36.1496 34.6902 36.1248 34.7006 36.1041 34.7169C35.6627 35.0611 34.9197 35.6933 34.8799 35.7274C34.6226 35.9479 34.6226 35.9479 34.412 35.8792C34.0416 35.7578 32.8911 35.1468 31.8885 34.142C30.8859 33.1371 30.2435 31.9581 30.122 31.5881C30.0526 31.3772 30.0526 31.3772 30.2738 31.1199C30.308 31.08 30.9406 30.337 31.2847 29.8961C31.3011 29.8753 31.3114 29.8505 31.3147 29.8243C31.318 29.7981 31.314 29.7715 31.3033 29.7473C31.1823 29.473 30.6632 28.5182 29.8306 27.2231C29.0041 25.9378 28.381 25.2384 28.17 25.0404C28.1507 25.0221 28.1267 25.0094 28.1007 25.0036C28.0748 24.9978 28.0477 24.9991 28.0224 25.0073C27.2849 25.2608 26.5733 25.5842 25.8973 25.9731C25.2448 26.3524 24.627 26.7886 24.0512 27.2766C24.0311 27.2937 24.016 27.3159 24.0076 27.3409C23.9992 27.3659 23.9977 27.3927 24.0034 27.4185C24.0827 27.7881 24.4618 29.331 25.6382 31.4682C26.8384 33.6494 27.6702 34.767 29.4329 36.5235C31.1956 38.2801 32.3484 39.162 34.5319 40.3623C36.6691 41.5386 38.2128 41.9181 38.5817 41.9967C38.6075 42.0023 38.6343 42.0008 38.6594 41.9924C38.6844 41.984 38.7068 41.9689 38.724 41.9488C39.2118 41.373 39.6479 40.7553 40.0271 40.1027C40.4159 39.4267 40.7393 38.7152 40.9928 37.9777C41.0009 37.9526 41.0022 37.9258 40.9965 37.9C40.9907 37.8742 40.9782 37.8505 40.9602 37.8312Z" fill="url(#paint1_linear_233_550)" fill-opacity="0.9"/>
<defs>
<linearGradient id="paint0_linear_233_550" x1="33" y1="2" x2="33" y2="64" gradientUnits="userSpaceOnUse">
<stop stop-color="#80CDCC"/>
<stop offset="0.505208" stop-color="#97A457"/>
<stop offset="1" stop-color="#D68D56"/>
</linearGradient>
<linearGradient id="paint1_linear_233_550" x1="24" y1="33.5" x2="41" y2="33.5" gradientUnits="userSpaceOnUse">
<stop stop-color="#8CE3E6"/>
<stop offset="0.5" stop-color="#91BC5D"/>
<stop offset="1" stop-color="#F3985B"/>
</linearGradient>
</defs>
</svg>
