<svg width="16" height="20" viewBox="0 0 16 20" fill="none" xmlns="http://www.w3.org/2000/svg">
<path d="M8.47674 0.0185243C7.46859 -0.0517609 6.4565 0.0784028 5.49894 0.401497C4.54138 0.724591 3.65733 1.23421 2.89785 1.90092C2.13837 2.56763 1.51852 3.37821 1.0741 4.28584C0.629683 5.19348 0.369503 6.18017 0.308594 7.18893C0.308594 10.0087 1.89512 11.6102 2.85431 11.6102C3.25041 11.6102 3.4795 10.5054 3.4795 10.1928C3.4795 9.8203 2.53101 9.0281 2.53101 7.47798C2.51793 6.74175 2.65526 6.0106 2.9346 5.3293C3.21394 4.64799 3.6294 4.03088 4.15556 3.51575C4.68172 3.00062 5.30749 2.59831 5.99455 2.33345C6.68161 2.0686 7.41551 1.94678 8.1513 1.97545C8.7611 1.90887 9.37809 1.97408 9.9605 2.16667C10.5429 2.35926 11.0771 2.67474 11.527 3.09174C11.9769 3.50874 12.332 4.01754 12.5681 4.58368C12.8043 5.14982 12.9161 5.7601 12.8959 6.37319C12.8959 8.49926 12.0395 12.4859 9.27963 12.4859C9.04218 12.4957 8.80518 12.4577 8.58267 12.3742C8.36015 12.2908 8.15663 12.1635 7.98415 12.0001C7.81167 11.8366 7.67374 11.6401 7.57852 11.4224C7.48329 11.2047 7.43271 10.97 7.42976 10.7324C7.42976 9.21866 8.48744 7.75417 8.48744 6.1912C8.48744 3.54057 4.72774 4.02016 4.72774 7.22319C4.70442 7.91995 4.83605 8.6132 5.11313 9.25291C4.28175 11.9821 3.71883 14.7859 3.4324 17.6245C3.4324 18.3803 3.53945 19.1232 3.61225 19.8833C3.74928 20.0353 3.68076 20.0203 3.88845 19.9432C5.44656 17.9374 6.43409 15.5481 6.74676 13.0276C7.05147 13.4831 7.46648 13.8541 7.95314 14.106C8.43981 14.358 8.98231 14.4827 9.53014 14.4685C13.7823 14.4685 15.6921 10.3256 15.6921 6.58944C15.6614 5.6804 15.449 4.78671 15.0675 3.96107C14.6859 3.13543 14.1428 2.39455 13.4703 1.78213C12.7979 1.16972 12.0096 0.698155 11.1519 0.39526C10.2943 0.0923647 9.38467 -0.0357319 8.47674 0.0185243Z" fill="white"/>
</svg>
