<svg width="18" height="17" viewBox="0 0 18 17" fill="none" xmlns="http://www.w3.org/2000/svg">
<path d="M9 16.9736C7.84342 16.9736 6.75326 16.7523 5.72949 16.3096C4.71126 15.8669 3.81201 15.2554 3.03174 14.4751C2.25146 13.6948 1.63997 12.7956 1.19727 11.7773C0.754557 10.7536 0.533203 9.66341 0.533203 8.50684C0.533203 7.35026 0.754557 6.26286 1.19727 5.24463C1.63997 4.22087 2.2487 3.31885 3.02344 2.53857C3.80371 1.7583 4.70296 1.14681 5.72119 0.704102C6.74495 0.261393 7.83512 0.0400391 8.9917 0.0400391C10.1483 0.0400391 11.2384 0.261393 12.2622 0.704102C13.286 1.14681 14.188 1.7583 14.9683 2.53857C15.7485 3.31885 16.36 4.22087 16.8027 5.24463C17.2454 6.26286 17.4668 7.35026 17.4668 8.50684C17.4668 9.66341 17.2454 10.7536 16.8027 11.7773C16.36 12.7956 15.7485 13.6948 14.9683 14.4751C14.188 15.2554 13.286 15.8669 12.2622 16.3096C11.244 16.7523 10.1566 16.9736 9 16.9736ZM9 15.5625C9.97949 15.5625 10.8953 15.3799 11.7476 15.0146C12.5998 14.6494 13.3496 14.1458 13.9971 13.5039C14.6445 12.8564 15.1481 12.1066 15.5078 11.2544C15.873 10.4022 16.0557 9.48633 16.0557 8.50684C16.0557 7.52734 15.873 6.61149 15.5078 5.75928C15.1426 4.90706 14.6362 4.15723 13.9888 3.50977C13.3468 2.8623 12.597 2.35872 11.7393 1.99902C10.887 1.63379 9.97119 1.45117 8.9917 1.45117C8.01221 1.45117 7.09635 1.63379 6.24414 1.99902C5.39193 2.35872 4.64486 2.8623 4.00293 3.50977C3.361 4.15723 2.85742 4.90706 2.49219 5.75928C2.13249 6.61149 1.95264 7.52734 1.95264 8.50684C1.95264 9.48633 2.13249 10.4022 2.49219 11.2544C2.85742 12.1066 3.361 12.8564 4.00293 13.5039C4.65039 14.1458 5.40023 14.6494 6.25244 15.0146C7.10465 15.3799 8.02051 15.5625 9 15.5625ZM7.44775 11.7524C7.25407 11.8687 7.06592 11.8908 6.8833 11.8188C6.70622 11.7414 6.61768 11.6003 6.61768 11.3955L6.61768 5.62646C6.61768 5.42725 6.71175 5.29167 6.8999 5.21973C7.08805 5.14779 7.27067 5.16439 7.44775 5.26953L12.1792 8.0752C12.3452 8.1748 12.4282 8.32145 12.4282 8.51514C12.4338 8.70882 12.3507 8.85824 12.1792 8.96338L7.44775 11.7524Z" fill="url(#paint0_linear_423_64)"/>
<defs>
<linearGradient id="paint0_linear_423_64" x1="-1" y1="-1.5" x2="20.4305" y2="21.4612" gradientUnits="userSpaceOnUse">
<stop stop-color="white"/>
<stop offset="1" stop-color="white" stop-opacity="0"/>
</linearGradient>
</defs>
</svg>
