<svg width="22" height="22" viewBox="0 0 22 22" fill="none" xmlns="http://www.w3.org/2000/svg">
<g id="search">
<g id="Union">
<path fill-rule="evenodd" clip-rule="evenodd" d="M3.625 9.16667C3.625 6.10609 6.10609 3.625 9.16667 3.625C12.2272 3.625 14.7083 6.10609 14.7083 9.16667C14.7083 12.2272 12.2272 14.7083 9.16667 14.7083C6.10609 14.7083 3.625 12.2272 3.625 9.16667ZM9.16667 1.875C5.13959 1.875 1.875 5.13959 1.875 9.16667C1.875 13.1937 5.13959 16.4583 9.16667 16.4583C10.8649 16.4583 12.4275 15.8778 13.6669 14.9043L18.6313 19.8687C18.973 20.2104 19.527 20.2104 19.8687 19.8687C20.2104 19.527 20.2104 18.973 19.8687 18.6313L14.9043 13.6669C15.8778 12.4275 16.4583 10.8649 16.4583 9.16667C16.4583 5.13959 13.1937 1.875 9.16667 1.875Z" fill="url(#paint0_linear_204_603)"/>
<path fill-rule="evenodd" clip-rule="evenodd" d="M3.625 9.16667C3.625 6.10609 6.10609 3.625 9.16667 3.625C12.2272 3.625 14.7083 6.10609 14.7083 9.16667C14.7083 12.2272 12.2272 14.7083 9.16667 14.7083C6.10609 14.7083 3.625 12.2272 3.625 9.16667ZM9.16667 1.875C5.13959 1.875 1.875 5.13959 1.875 9.16667C1.875 13.1937 5.13959 16.4583 9.16667 16.4583C10.8649 16.4583 12.4275 15.8778 13.6669 14.9043L18.6313 19.8687C18.973 20.2104 19.527 20.2104 19.8687 19.8687C20.2104 19.527 20.2104 18.973 19.8687 18.6313L14.9043 13.6669C15.8778 12.4275 16.4583 10.8649 16.4583 9.16667C16.4583 5.13959 13.1937 1.875 9.16667 1.875Z" fill="white" fill-opacity="0.2"/>
</g>
</g>
<defs>
<linearGradient id="paint0_linear_204_603" x1="11" y1="1.875" x2="11" y2="20.125" gradientUnits="userSpaceOnUse">
<stop stop-color="#C7C8CC"/>
<stop offset="1" stop-color="#6D707E"/>
</linearGradient>
</defs>
</svg>
