<svg width="20" height="18" viewBox="0 0 20 18" fill="none" xmlns="http://www.w3.org/2000/svg">
<path d="M17.9471 4.92565C17.96 5.10354 17.96 5.28142 17.96 5.4593C17.9705 6.99386 17.676 8.51523 17.0936 9.93502C16.5112 11.3548 15.6525 12.6447 14.5674 13.7299C13.4823 14.815 12.1924 15.6737 10.7726 16.2561C9.35278 16.8385 7.83142 17.1329 6.29686 17.1224C4.06403 17.1269 1.87746 16.4861 0.000244141 15.2771C0.329006 15.3136 0.659618 15.3307 0.990386 15.3286C2.83561 15.3335 4.62869 14.7166 6.0804 13.5776C5.22516 13.5626 4.39597 13.2808 3.7086 12.7717C3.02122 12.2627 2.50999 11.5516 2.24628 10.7379C2.5022 10.7787 2.76082 10.8002 3.01996 10.8022C3.38157 10.8006 3.74156 10.7538 4.09154 10.6629C3.16447 10.4735 2.33147 9.96918 1.73382 9.23559C1.13617 8.502 0.810657 7.58427 0.812503 6.63804V6.58875C1.38075 6.90607 2.01598 7.08452 2.66634 7.10954C1.79568 6.52935 1.17932 5.63869 0.943126 4.61943C0.706933 3.60017 0.868717 2.52919 1.39544 1.62518C2.42545 2.89194 3.71016 3.92811 5.1663 4.66651C6.62244 5.40492 8.2175 5.82908 9.84808 5.91151C9.78259 5.60286 9.74883 5.28832 9.74735 4.9728C9.74902 4.1508 9.99748 3.34823 10.4606 2.66906C10.9236 1.9899 11.58 1.46544 12.3446 1.16362C13.1092 0.861799 13.9468 0.796529 14.7489 0.976264C15.551 1.156 16.2807 1.57246 16.8434 2.17169C17.7614 1.99483 18.6418 1.6598 19.4452 1.18155C19.1393 2.12879 18.4985 2.93195 17.6428 3.44044C18.4562 3.34479 19.2508 3.12808 20.0002 2.79749C19.4406 3.61746 18.7465 4.33697 17.9471 4.92565Z" fill="white"/>
</svg>
