<svg xmlns="http://www.w3.org/2000/svg" width="105" height="10" viewBox="0 0 105 10" fill="none">
    <path fill-rule="evenodd" clip-rule="evenodd" d="M94.0966 6.45577C94.5976 6.45577 94.951 5.98788 95.0268 5.25863C96.4021 6.97323 103.355 15.0348 105 4.95577C105 4.95577 103.7 -5.85148 95.0227 4.67049C94.9326 4.0173 94.5389 3.55575 94.0966 3.55575C93.7066 3.55575 93.3543 3.97457 93.2147 4.53463L90.4412 1.2557C90.2107 2.13351 88.6311 3.76046 87.7996 4.57089C87.6643 4.02523 87.3074 3.65572 86.9118 3.65572C86.5403 3.65572 86.203 4.03573 86.0512 4.55575H7.68905V5.04061C7.68401 4.54769 7.4332 4.15572 7.05888 4.15572C6.82034 4.15572 6.58179 4.38497 6.47993 4.71322C0.86187 -1.97977 0 4.95565 0 4.95565C0.998657 11.3819 5.36734 6.49398 6.44182 5.23177C6.50463 5.64645 6.78175 5.95577 7.05888 5.95577C7.37115 5.95577 7.68343 5.56295 7.68905 5.0693V5.55575H86.005C86.1229 6.14767 86.4959 6.55575 86.9118 6.55575C87.2968 6.55575 87.6451 6.14742 87.7882 5.59811L87.9112 5.71981C88.7699 6.56869 90.2422 8.02425 90.5042 8.85568C90.5042 8.85568 92.3634 6.65768 93.2261 5.60506C93.3727 6.1152 93.7168 6.45577 94.0966 6.45577ZM102.605 4.45577C102.416 4.45577 102.29 4.65572 102.29 4.95577C102.29 5.2557 102.416 5.45577 102.605 5.45577C102.794 5.45577 102.92 5.2557 102.92 4.95577C102.92 4.65572 102.794 4.45577 102.605 4.45577ZM101.66 4.95577C97.563 1.65572 96.9958 4.95577 96.9958 4.95577C97.8151 8.3558 101.66 4.95577 101.66 4.95577ZM1.57563 5.2557C1.44958 5.2557 1.32352 5.15572 1.32352 4.95565C1.32352 4.85568 1.38653 4.65572 1.57563 4.65572C1.70165 4.65572 1.82771 4.7557 1.82771 4.95565C1.82771 5.05575 1.70165 5.2557 1.57563 5.2557ZM2.14284 5.05575C4.7899 2.95565 5.16804 5.05575 5.16804 5.05575C4.74874 6.80209 2.93469 5.57467 2.33563 5.16927C2.21431 5.08724 2.14284 5.0389 2.14284 5.05575Z" fill="url(#paint0_linear_212_2311)"/>
    <defs>
    <linearGradient id="paint0_linear_212_2311" x1="5.42557e-07" y1="5.06689" x2="105" y2="5.06688" gradientUnits="userSpaceOnUse">
    <stop stop-color="#8CE3E6"/>
    <stop offset="0.484375" stop-color="#91BD60"/>
    <stop offset="1" stop-color="#F39E5D"/>
    </linearGradient>
    </defs>
</svg>