<?xml version="1.0" encoding="UTF-8"?>
<!DOCTYPE svg PUBLIC "-//W3C//DTD SVG 1.1//EN" "http://www.w3.org/Graphics/SVG/1.1/DTD/svg11.dtd">
<svg xmlns="http://www.w3.org/2000/svg" version="1.1" width="320px" height="320px" style="shape-rendering:geometricPrecision; text-rendering:geometricPrecision; image-rendering:optimizeQuality; fill-rule:evenodd; clip-rule:evenodd" xmlns:xlink="http://www.w3.org/1999/xlink">
<g><path style="opacity:0.941" fill="#85ccba" d="M 97.5,39.5 C 94.1099,35.2859 89.7766,32.4525 84.5,31C 69.5,30.3333 54.5,30.3333 39.5,31C 36.3634,31.6011 33.3634,32.6011 30.5,34C 29.7638,36.5293 28.2638,39.0293 26,41.5C 25.6054,35.7913 28.1054,31.958 33.5,30C 32.2625,29.7679 31.2625,29.2679 30.5,28.5C 46.8277,27.4544 63.161,27.2877 79.5,28C 87.7337,28.602 93.7337,32.4354 97.5,39.5 Z"/></g>
<g><path style="opacity:1" fill="#36b394" d="M 30.5,28.5 C 31.2625,29.2679 32.2625,29.7679 33.5,30C 28.1054,31.958 25.6054,35.7913 26,41.5C 28.2638,39.0293 29.7638,36.5293 30.5,34C 33.3634,32.6011 36.3634,31.6011 39.5,31C 54.5,30.3333 69.5,30.3333 84.5,31C 89.7766,32.4525 94.1099,35.2859 97.5,39.5C 98.5079,46.4718 98.6745,53.4718 98,60.5C 98.507,55.4934 96.507,52.1601 92,50.5C 91.586,50.9574 91.086,51.2907 90.5,51.5C 89.2341,49.5961 87.5675,48.2628 85.5,47.5C 82.8479,43.6856 79.1813,42.5189 74.5,44C 72.5494,45.7342 71.5494,47.9009 71.5,50.5C 70.8333,50.1667 70.1667,49.8333 69.5,49.5C 67.517,44.5082 63.8503,42.6749 58.5,44C 56.5612,45.4321 55.2279,47.2654 54.5,49.5C 53.8333,49.5 53.1667,49.5 52.5,49.5C 50.7968,44.8133 47.4634,42.9799 42.5,44C 38.9504,46.5464 37.6171,50.0464 38.5,54.5C 37.2225,55.7495 36.2225,57.2495 35.5,59C 36.0294,67.9355 32.8627,68.7688 26,61.5C 25.1016,58.9309 23.935,56.5976 22.5,54.5C 22.0754,48.988 20.7421,43.6547 18.5,38.5C 21.2392,33.7778 25.2392,30.4445 30.5,28.5 Z"/></g>
<g><path style="opacity:1" fill="#6a6a6a" d="M 149.5,35.5 C 150.075,37.4113 151.075,39.078 152.5,40.5C 149.861,40.5708 147.694,41.5708 146,43.5C 144.7,42.2927 143.2,41.6261 141.5,41.5C 141.104,44.0444 141.771,46.2111 143.5,48C 147.327,48.5841 150.994,48.0841 154.5,46.5C 154.672,47.4916 154.338,48.1583 153.5,48.5C 150.214,49.2071 146.881,49.5405 143.5,49.5C 143.715,51.1788 143.048,52.1788 141.5,52.5C 142.803,49.8806 142.303,47.5472 140,45.5C 139.142,37.8616 142.308,34.5282 149.5,35.5 Z"/></g>
<g><path style="opacity:0.443" fill="#c3c3c2" d="M 149.5,35.5 C 153.129,35.795 155.129,37.795 155.5,41.5C 154.209,41.7373 153.209,41.404 152.5,40.5C 151.075,39.078 150.075,37.4113 149.5,35.5 Z"/></g>
<g><path style="opacity:1" fill="#333434" d="M 152.5,40.5 C 153.209,41.404 154.209,41.7373 155.5,41.5C 156.678,43.3379 156.345,45.0045 154.5,46.5C 150.994,48.0841 147.327,48.5841 143.5,48C 141.771,46.2111 141.104,44.0444 141.5,41.5C 143.2,41.6261 144.7,42.2927 146,43.5C 147.694,41.5708 149.861,40.5708 152.5,40.5 Z"/></g>
<g><path style="opacity:1" fill="#e3e6e5" d="M 69.5,49.5 C 68.4223,57.0795 64.4223,59.2462 57.5,56C 55.5494,54.2658 54.5494,52.0991 54.5,49.5C 55.2279,47.2654 56.5612,45.4321 58.5,44C 63.8503,42.6749 67.517,44.5082 69.5,49.5 Z"/></g>
<g><path style="opacity:1" fill="#e3e6e5" d="M 85.5,47.5 C 86.2635,56.1154 82.5969,58.9487 74.5,56C 72.84,54.5123 71.84,52.679 71.5,50.5C 71.5494,47.9009 72.5494,45.7342 74.5,44C 79.1813,42.5189 82.8479,43.6856 85.5,47.5 Z"/></g>
<g><path style="opacity:1" fill="#e4e6e6" d="M 52.5,49.5 C 52.3337,56.8085 48.6671,59.3085 41.5,57C 40.6266,55.955 39.6266,55.1217 38.5,54.5C 37.6171,50.0464 38.9504,46.5464 42.5,44C 47.4634,42.9799 50.7968,44.8133 52.5,49.5 Z"/></g>
<g><path style="opacity:1" fill="#3aa889" d="M 97.5,39.5 C 98.5585,40.6002 99.3918,41.9336 100,43.5C 100.667,54.1667 100.667,64.8333 100,75.5C 98.4443,77.6348 96.6109,77.9681 94.5,76.5C 90.8318,72.4904 86.4985,70.4904 81.5,70.5C 65.0956,71.6995 49.0956,71.6995 33.5,70.5C 30.5624,68.066 27.7291,65.3993 25,62.5C 23.2932,60.0912 22.4598,57.4245 22.5,54.5C 23.935,56.5976 25.1016,58.9309 26,61.5C 32.8627,68.7688 36.0294,67.9355 35.5,59C 36.2225,57.2495 37.2225,55.7495 38.5,54.5C 39.6266,55.1217 40.6266,55.955 41.5,57C 48.6671,59.3085 52.3337,56.8085 52.5,49.5C 53.1667,49.5 53.8333,49.5 54.5,49.5C 54.5494,52.0991 55.5494,54.2658 57.5,56C 64.4223,59.2462 68.4223,57.0795 69.5,49.5C 70.1667,49.8333 70.8333,50.1667 71.5,50.5C 71.84,52.679 72.84,54.5123 74.5,56C 82.5969,58.9487 86.2635,56.1154 85.5,47.5C 87.5675,48.2628 89.2341,49.5961 90.5,51.5C 91.086,51.2907 91.586,50.9574 92,50.5C 96.507,52.1601 98.507,55.4934 98,60.5C 98.6745,53.4718 98.5079,46.4718 97.5,39.5 Z"/></g>
<g><path style="opacity:1" fill="#83ae9f" d="M 18.5,38.5 C 20.7421,43.6547 22.0754,48.988 22.5,54.5C 22.4598,57.4245 23.2932,60.0912 25,62.5C 27.7291,65.3993 30.5624,68.066 33.5,70.5C 20.9537,68.0874 14.6203,60.2541 14.5,47C 15.4697,43.8492 16.803,41.0159 18.5,38.5 Z"/></g>
<g><path style="opacity:0.996" fill="#99ada5" d="M 94.5,76.5 C 94.5654,76.9382 94.3988,77.2716 94,77.5C 92.5093,75.9963 90.676,75.1629 88.5,75C 85.7613,73.9741 83.428,72.4741 81.5,70.5C 86.4985,70.4904 90.8318,72.4904 94.5,76.5 Z"/></g>
<g><path style="opacity:1" fill="#ebebeb" d="M 153.5,48.5 C 153.5,54.1667 153.5,59.8333 153.5,65.5C 156.85,65.335 160.183,65.5017 163.5,66C 164.56,67.298 165.726,68.4647 167,69.5C 188.089,73.1111 203.256,84.4445 212.5,103.5C 212.135,105.588 212.135,107.921 212.5,110.5C 210.712,110.785 209.045,110.452 207.5,109.5C 201.887,96.6822 192.22,90.8489 178.5,92C 165.038,96.476 151.538,96.6427 138,92.5C 124.703,94.7897 116.037,102.456 112,115.5C 111.536,114.906 111.369,114.239 111.5,113.5C 111.5,112.833 111.5,112.167 111.5,111.5C 113.474,108.23 115.474,104.897 117.5,101.5C 116.998,100.479 116.332,100.312 115.5,101C 113.624,103.046 111.624,104.879 109.5,106.5C 108.558,106.392 107.725,106.059 107,105.5C 106.333,103.833 106.333,102.167 107,100.5C 108.344,97.3288 109.51,94.1622 110.5,91C 110.419,88.4431 109.253,86.6098 107,85.5C 107.256,83.3977 107.089,81.3977 106.5,79.5C 113.471,74.8918 121.138,71.7251 129.5,70C 130.167,68.6667 130.833,67.3333 131.5,66C 134.833,65.6667 138.167,65.3333 141.5,65C 142.424,60.9012 142.424,56.7346 141.5,52.5C 143.048,52.1788 143.715,51.1788 143.5,49.5C 146.881,49.5405 150.214,49.2071 153.5,48.5 Z"/></g>
<g><path style="opacity:1" fill="#c7c8c8" d="M 106.5,79.5 C 107.089,81.3977 107.256,83.3977 107,85.5C 109.253,86.6098 110.419,88.4431 110.5,91C 109.51,94.1622 108.344,97.3288 107,100.5C 106.333,102.167 106.333,103.833 107,105.5C 107.725,106.059 108.558,106.392 109.5,106.5C 111.624,104.879 113.624,103.046 115.5,101C 116.332,100.312 116.998,100.479 117.5,101.5C 115.474,104.897 113.474,108.23 111.5,111.5C 111.565,111.062 111.399,110.728 111,110.5C 109.159,114.183 106.826,117.516 104,120.5C 99.4931,117.159 95.6598,113.159 92.5,108.5C 91.5832,107.873 90.5832,107.539 89.5,107.5C 87.6943,106.976 86.0276,106.309 84.5,105.5C 89.015,94.4833 96.3483,85.8167 106.5,79.5 Z"/></g>
<g><path style="opacity:1" fill="#5e5e5e" d="M 226.5,114.5 C 227.289,114.783 227.956,115.283 228.5,116C 227.587,117.414 227.587,118.914 228.5,120.5C 224.766,117.474 220.432,115.808 215.5,115.5C 215.821,120.695 215.487,125.695 214.5,130.5C 214.823,124.31 214.49,118.31 213.5,112.5C 213.5,111.167 213.5,109.833 213.5,108.5C 218.92,107.668 221.587,110.001 221.5,115.5C 223.415,115.784 225.081,115.451 226.5,114.5 Z"/></g>
<g><path style="opacity:0.997" fill="#777777" d="M 84.5,105.5 C 86.0276,106.309 87.6943,106.976 89.5,107.5C 89.5569,108.609 89.8902,109.609 90.5,110.5C 84.8251,109.244 80.4918,111.077 77.5,116C 76.175,115.852 75.0084,116.018 74,116.5C 74.3256,121.44 74.4923,126.44 74.5,131.5C 75.9721,140.624 81.3054,144.29 90.5,142.5C 90.3893,143.117 90.056,143.617 89.5,144C 85.596,144.288 81.9293,144.454 78.5,144.5C 65.0401,131.482 65.3734,118.648 79.5,106C 81.1341,105.506 82.8008,105.34 84.5,105.5 Z"/></g>
<g><path style="opacity:1" fill="#2e3331" d="M 228.5,120.5 C 229.603,129.175 226.603,136.175 219.5,141.5C 217.167,141.5 214.833,141.5 212.5,141.5C 213.167,137.833 213.833,134.167 214.5,130.5C 215.487,125.695 215.821,120.695 215.5,115.5C 220.432,115.808 224.766,117.474 228.5,120.5 Z"/></g>
<g><path style="opacity:1" fill="#3f3f3f" d="M 90.5,110.5 C 92.6541,119.868 92.9875,129.202 91.5,138.5C 90.1591,136.88 88.3258,135.88 86,135.5C 85.8184,132.774 85.3184,130.107 84.5,127.5C 81.8695,125.609 79.3695,123.609 77,121.5C 76.262,124.991 75.4287,128.325 74.5,131.5C 74.4923,126.44 74.3256,121.44 74,116.5C 75.0084,116.018 76.175,115.852 77.5,116C 80.4918,111.077 84.8251,109.244 90.5,110.5 Z"/></g>
<g><path style="opacity:1" fill="#202120" d="M 91.5,138.5 C 91.5674,139.959 91.2341,141.292 90.5,142.5C 81.3054,144.29 75.9721,140.624 74.5,131.5C 75.4287,128.325 76.262,124.991 77,121.5C 79.3695,123.609 81.8695,125.609 84.5,127.5C 85.3184,130.107 85.8184,132.774 86,135.5C 88.3258,135.88 90.1591,136.88 91.5,138.5 Z"/></g>
<g><path style="opacity:1" fill="#d0d0d0" d="M 212.5,103.5 C 220.102,103.436 224.769,107.103 226.5,114.5C 225.081,115.451 223.415,115.784 221.5,115.5C 221.587,110.001 218.92,107.668 213.5,108.5C 213.5,109.833 213.5,111.167 213.5,112.5C 213.5,114.167 213.5,115.833 213.5,117.5C 211.549,117.773 210.049,117.107 209,115.5C 211.889,131.498 207.556,145.165 196,156.5C 195.51,157.793 195.343,159.127 195.5,160.5C 197.861,160.326 200.194,159.993 202.5,159.5C 194.833,167.678 185.499,173.344 174.5,176.5C 172.952,176.179 172.285,175.179 172.5,173.5C 165.053,171.648 157.387,170.981 149.5,171.5C 129.32,167.653 115.987,155.987 109.5,136.5C 107.892,128.527 108.558,120.86 111.5,113.5C 111.369,114.239 111.536,114.906 112,115.5C 116.037,102.456 124.703,94.7897 138,92.5C 151.538,96.6427 165.038,96.476 178.5,92C 192.22,90.8489 201.887,96.6822 207.5,109.5C 209.045,110.452 210.712,110.785 212.5,110.5C 212.135,107.921 212.135,105.588 212.5,103.5 Z"/></g>
<g><path style="opacity:1" fill="#a8a8a8" d="M 177.5,95.5 C 192.966,94.7869 202.133,102.12 205,117.5C 207.208,144.966 194.708,161.133 167.5,166C 147.364,169.849 131.197,163.682 119,147.5C 114.257,136.887 113.257,125.887 116,114.5C 120.547,101.269 129.713,95.4361 143.5,97C 155.143,100.677 166.476,100.177 177.5,95.5 Z"/></g>
<g><path style="opacity:1" fill="#afafaf" d="M 165.5,148.5 C 165.189,147.522 164.522,146.855 163.5,146.5C 159.065,151.118 154.399,151.451 149.5,147.5C 147.261,149.133 146.928,151.133 148.5,153.5C 149.031,155.624 150.365,157.124 152.5,158C 149.733,158.056 147.067,158.222 144.5,158.5C 135.523,155.685 128.023,150.685 122,143.5C 117.14,130.879 119.306,119.712 128.5,110C 130.275,108.561 132.275,107.561 134.5,107C 145.021,106.793 155.521,107.293 166,108.5C 176.949,106.275 186.615,108.942 195,116.5C 197.254,119.428 198.421,122.762 198.5,126.5C 197.76,133.069 195.594,139.069 192,144.5C 188.987,146.598 185.82,148.598 182.5,150.5C 181.914,150.291 181.414,149.957 181,149.5C 176.573,153.463 171.406,155.963 165.5,157C 166.696,157.654 166.696,158.154 165.5,158.5C 164.713,157.758 164.047,156.925 163.5,156C 166.17,153.817 166.837,151.317 165.5,148.5 Z"/></g>
<g><path style="opacity:1" fill="#525252" d="M 172.5,116.5 C 180.318,117.494 183.985,121.994 183.5,130C 183.371,138.13 179.371,142.13 171.5,142C 163.197,133.021 163.53,124.521 172.5,116.5 Z"/></g>
<g><path style="opacity:1" fill="#515151" d="M 137.5,117.5 C 143.308,116.652 147.142,118.985 149,124.5C 150.589,131.2 149.089,137.034 144.5,142C 137.214,143.73 132.714,140.896 131,133.5C 129.77,126.672 131.936,121.339 137.5,117.5 Z"/></g>
<g><path style="opacity:1" fill="#969696" d="M 89.5,107.5 C 90.5832,107.539 91.5832,107.873 92.5,108.5C 95.6598,113.159 99.4931,117.159 104,120.5C 106.826,117.516 109.159,114.183 111,110.5C 111.399,110.728 111.565,111.062 111.5,111.5C 111.5,112.167 111.5,112.833 111.5,113.5C 108.558,120.86 107.892,128.527 109.5,136.5C 109.322,137.695 108.989,138.862 108.5,140C 110.529,145.224 112.695,150.391 115,155.5C 118.566,158.699 122.4,161.533 126.5,164C 125.183,165.659 123.517,166.826 121.5,167.5C 112.26,159.723 103.26,151.723 94.5,143.5C 93.3112,142.571 91.9778,142.238 90.5,142.5C 91.2341,141.292 91.5674,139.959 91.5,138.5C 92.9875,129.202 92.6541,119.868 90.5,110.5C 89.8902,109.609 89.5569,108.609 89.5,107.5 Z"/></g>
<g><path style="opacity:1" fill="#b1dace" d="M 301.5,147.5 C 299.002,146.088 296.336,144.921 293.5,144C 276.492,143.419 259.492,143.586 242.5,144.5C 240.469,144.028 238.802,143.028 237.5,141.5C 252.259,141.233 267.092,140.566 282,139.5C 286.559,140.432 291.059,141.598 295.5,143C 298.106,143.792 300.106,145.292 301.5,147.5 Z"/></g>
<g><path style="opacity:1" fill="#9ea9a4" d="M 213.5,112.5 C 214.49,118.31 214.823,124.31 214.5,130.5C 213.833,134.167 213.167,137.833 212.5,141.5C 214.833,141.5 217.167,141.5 219.5,141.5C 217.935,143.719 215.935,144.052 213.5,142.5C 211.729,143.035 211.396,143.869 212.5,145C 209.694,150.287 206.36,155.121 202.5,159.5C 200.194,159.993 197.861,160.326 195.5,160.5C 195.343,159.127 195.51,157.793 196,156.5C 207.556,145.165 211.889,131.498 209,115.5C 210.049,117.107 211.549,117.773 213.5,117.5C 213.5,115.833 213.5,114.167 213.5,112.5 Z"/></g>
<g><path style="opacity:1" fill="#5c5c5c" d="M 165.5,148.5 C 164.985,152.453 162.652,154.619 158.5,155C 154.897,155.843 151.564,155.343 148.5,153.5C 146.928,151.133 147.261,149.133 149.5,147.5C 154.399,151.451 159.065,151.118 163.5,146.5C 164.522,146.855 165.189,147.522 165.5,148.5 Z"/></g>
<g><path style="opacity:1" fill="#b8b8b8" d="M 109.5,136.5 C 115.987,155.987 129.32,167.653 149.5,171.5C 140.2,172.252 130.866,172.752 121.5,173C 120.292,173.921 118.958,174.421 117.5,174.5C 103.701,170.071 93.3679,161.071 86.5,147.5C 83.7062,146.747 81.0396,145.747 78.5,144.5C 81.9293,144.454 85.596,144.288 89.5,144C 90.056,143.617 90.3893,143.117 90.5,142.5C 91.9778,142.238 93.3112,142.571 94.5,143.5C 103.26,151.723 112.26,159.723 121.5,167.5C 123.517,166.826 125.183,165.659 126.5,164C 122.4,161.533 118.566,158.699 115,155.5C 112.695,150.391 110.529,145.224 108.5,140C 108.989,138.862 109.322,137.695 109.5,136.5 Z"/></g>
<g><path style="opacity:1" fill="#dee1e0" d="M 276.5,159.5 C 276.471,167.696 272.471,170.863 264.5,169C 262.558,167.618 261.225,165.785 260.5,163.5C 260.848,156.315 264.515,153.481 271.5,155C 273.497,156.193 275.164,157.693 276.5,159.5 Z"/></g>
<g><path style="opacity:1" fill="#dee1e0" d="M 293.5,157.5 C 295.265,167.567 291.265,171.067 281.5,168C 279.798,165.765 278.798,163.265 278.5,160.5C 280.627,154.875 284.627,153.042 290.5,155C 291.373,156.045 292.373,156.878 293.5,157.5 Z"/></g>
<g><path style="opacity:1" fill="#dee1e0" d="M 257.5,161.5 C 257.244,168.579 253.577,171.412 246.5,170C 245.295,168.624 243.962,167.458 242.5,166.5C 241.493,156.998 245.493,153.498 254.5,156C 256.16,157.488 257.16,159.321 257.5,161.5 Z"/></g>
<g><path style="opacity:1" fill="#37a687" d="M 301.5,147.5 C 303.531,148.539 304.864,150.205 305.5,152.5C 303.852,151.19 302.186,149.857 300.5,148.5C 298.981,149.851 297.648,151.351 296.5,153C 299.089,154.922 299.589,157.089 298,159.5C 296.89,157.963 295.39,157.297 293.5,157.5C 292.373,156.878 291.373,156.045 290.5,155C 284.627,153.042 280.627,154.875 278.5,160.5C 277.833,160.167 277.167,159.833 276.5,159.5C 275.164,157.693 273.497,156.193 271.5,155C 264.515,153.481 260.848,156.315 260.5,163.5C 259.5,162.833 258.5,162.167 257.5,161.5C 257.16,159.321 256.16,157.488 254.5,156C 245.493,153.498 241.493,156.998 242.5,166.5C 243.41,172.45 243.077,178.45 241.5,184.5C 237.723,187.055 233.723,189.055 229.5,190.5C 229.333,179.162 229.5,167.828 230,156.5C 231.145,153.568 231.978,150.568 232.5,147.5C 236.345,147.712 239.679,146.712 242.5,144.5C 259.492,143.586 276.492,143.419 293.5,144C 296.336,144.921 299.002,146.088 301.5,147.5 Z"/></g>
<g><path style="opacity:1" fill="#389c7e" d="M 305.5,152.5 C 310.441,162.309 308.774,171.476 300.5,180C 297.056,182.056 293.389,183.556 289.5,184.5C 274.323,183.882 259.157,183.882 244,184.5C 240.423,187.373 236.589,189.873 232.5,192C 231.251,192.74 230.251,192.573 229.5,191.5C 229.5,191.167 229.5,190.833 229.5,190.5C 233.723,189.055 237.723,187.055 241.5,184.5C 243.077,178.45 243.41,172.45 242.5,166.5C 243.962,167.458 245.295,168.624 246.5,170C 253.577,171.412 257.244,168.579 257.5,161.5C 258.5,162.167 259.5,162.833 260.5,163.5C 261.225,165.785 262.558,167.618 264.5,169C 272.471,170.863 276.471,167.696 276.5,159.5C 277.167,159.833 277.833,160.167 278.5,160.5C 278.798,163.265 279.798,165.765 281.5,168C 291.265,171.067 295.265,167.567 293.5,157.5C 295.39,157.297 296.89,157.963 298,159.5C 299.589,157.089 299.089,154.922 296.5,153C 297.648,151.351 298.981,149.851 300.5,148.5C 302.186,149.857 303.852,151.19 305.5,152.5 Z"/></g>
<g><path style="opacity:1" fill="#81ac9c" d="M 237.5,141.5 C 238.802,143.028 240.469,144.028 242.5,144.5C 239.679,146.712 236.345,147.712 232.5,147.5C 231.978,150.568 231.145,153.568 230,156.5C 229.5,167.828 229.333,179.162 229.5,190.5C 229.5,190.833 229.5,191.167 229.5,191.5C 226.626,191.377 224.126,190.377 222,188.5C 221.333,178.833 221.333,169.167 222,159.5C 223.677,150.47 228.844,144.47 237.5,141.5 Z"/></g>
<g><path style="opacity:1" fill="#9c9c9c" d="M 149.5,171.5 C 157.387,170.981 165.053,171.648 172.5,173.5C 172.285,175.179 172.952,176.179 174.5,176.5C 172.754,177.001 171.754,177.668 171.5,178.5C 171.703,180.044 172.37,181.378 173.5,182.5C 157.167,183.833 140.833,183.833 124.5,182.5C 126.667,181.052 129,179.885 131.5,179C 130.207,178.51 128.873,178.343 127.5,178.5C 127.167,177.167 126.833,177.167 126.5,178.5C 126.167,178.5 125.833,178.5 125.5,178.5C 122.746,177.359 120.079,176.025 117.5,174.5C 118.958,174.421 120.292,173.921 121.5,173C 130.866,172.752 140.2,172.252 149.5,171.5 Z"/></g>
<g><path style="opacity:1" fill="#cdcdcd" d="M 125.5,178.5 C 125.833,178.5 126.167,178.5 126.5,178.5C 126.833,178.5 127.167,178.5 127.5,178.5C 128.873,178.343 130.207,178.51 131.5,179C 129,179.885 126.667,181.052 124.5,182.5C 140.833,183.833 157.167,183.833 173.5,182.5C 172.37,181.378 171.703,180.044 171.5,178.5C 173.435,179.15 175.435,179.483 177.5,179.5C 177.821,181.048 178.821,181.715 180.5,181.5C 180.67,182.822 180.337,183.989 179.5,185C 177.616,185.216 175.949,185.883 174.5,187C 154.115,187.33 133.782,188.163 113.5,189.5C 113.34,191.199 113.506,192.866 114,194.5C 116.403,196.305 118.07,198.638 119,201.5C 120.45,212.232 124.95,221.398 132.5,229C 133.577,229.47 134.577,229.303 135.5,228.5C 136.605,251.113 148.272,260.613 170.5,257C 172.86,255.82 175.193,254.653 177.5,253.5C 178.124,253.917 178.457,254.584 178.5,255.5C 175.8,264.734 172.133,273.567 167.5,282C 160.167,282.667 152.833,282.667 145.5,282C 140.354,269.56 136.187,256.727 133,243.5C 129.333,236.833 125.667,230.167 122,223.5C 120.745,217.066 119.078,210.732 117,204.5C 115.939,201.438 114.106,198.938 111.5,197C 110.668,196.312 110.002,196.479 109.5,197.5C 108.678,201.183 106.512,203.516 103,204.5C 100.557,209.052 98.3904,213.718 96.5,218.5C 93.742,221.703 91.242,225.036 89,228.5C 88.6053,226.821 88.772,225.155 89.5,223.5C 87.7576,221.594 86.7576,219.26 86.5,216.5C 87.4793,210.874 89.3126,205.541 92,200.5C 92.1667,198.833 92.3333,197.167 92.5,195.5C 92.4439,193.36 91.7773,191.694 90.5,190.5C 91.0577,189.21 92.0577,188.377 93.5,188C 97.5305,187.674 101.53,187.674 105.5,188C 110.736,181.955 117.403,178.788 125.5,178.5 Z"/></g>
<g><path style="opacity:1" fill="#e7e7e7" d="M 177.5,179.5 C 182.173,180.92 186.34,183.253 190,186.5C 192.737,185.39 195.571,185.223 198.5,186C 200.324,186.66 201.657,187.827 202.5,189.5C 198.517,190.904 194.85,190.238 191.5,187.5C 190.027,190.28 188.693,193.113 187.5,196C 179.089,196.874 170.755,198.208 162.5,200C 159.734,201.371 157.401,203.204 155.5,205.5C 144.555,209.445 137.888,217.112 135.5,228.5C 134.577,229.303 133.577,229.47 132.5,229C 124.95,221.398 120.45,212.232 119,201.5C 118.07,198.638 116.403,196.305 114,194.5C 113.506,192.866 113.34,191.199 113.5,189.5C 133.782,188.163 154.115,187.33 174.5,187C 175.949,185.883 177.616,185.216 179.5,185C 180.337,183.989 180.67,182.822 180.5,181.5C 178.821,181.715 177.821,181.048 177.5,179.5 Z"/></g>
<g><path style="opacity:1" fill="#d0d1d1" d="M 202.5,189.5 C 204.358,191.883 205.692,194.55 206.5,197.5C 206.565,197.938 206.399,198.272 206,198.5C 204.295,195.455 203.129,195.289 202.5,198C 203.702,203.9 205.868,209.4 209,214.5C 210.173,219.848 210.34,225.182 209.5,230.5C 206.341,229.845 203.841,228.178 202,225.5C 200.909,219.692 199.742,214.025 198.5,208.5C 198.277,204.838 197.277,201.505 195.5,198.5C 195.752,195.068 194.419,194.068 191.5,195.5C 187.379,200.749 184.045,206.415 181.5,212.5C 177.981,209.309 173.981,206.975 169.5,205.5C 164.809,204.327 160.142,204.327 155.5,205.5C 157.401,203.204 159.734,201.371 162.5,200C 170.755,198.208 179.089,196.874 187.5,196C 188.693,193.113 190.027,190.28 191.5,187.5C 194.85,190.238 198.517,190.904 202.5,189.5 Z"/></g>
<g><path style="opacity:1" fill="#a2a2a2" d="M 135.5,284.5 C 130.192,261.228 121.192,239.561 108.5,219.5C 106.045,222.099 104.712,225.265 104.5,229C 107.671,237.174 109.504,245.674 110,254.5C 115.804,263.271 120.97,272.437 125.5,282C 124.756,283.039 123.756,283.539 122.5,283.5C 120.008,274.192 115.508,265.526 109,257.5C 107.723,246.374 103.723,236.374 97,227.5C 95.955,228.373 95.1217,229.373 94.5,230.5C 93.9717,231.721 93.305,232.887 92.5,234C 89.6441,235.259 86.9774,236.759 84.5,238.5C 80.9136,235.338 79.7469,231.338 81,226.5C 81.912,228.659 82.7454,230.825 83.5,233C 85.1667,233.667 86.8333,233.667 88.5,233C 93.4663,228.354 97.2996,222.854 100,216.5C 100.333,217.833 100.667,219.167 101,220.5C 102.027,216.392 103.36,212.392 105,208.5C 108.764,200.508 112.097,200.841 115,209.5C 118.084,221.999 123.084,233.666 130,244.5C 133.068,256.703 136.735,268.703 141,280.5C 141.772,281.849 142.939,282.682 144.5,283C 141.522,283.696 138.522,284.196 135.5,284.5 Z"/></g>
<g><path style="opacity:1" fill="#bcbdbc" d="M 90.5,190.5 C 91.7773,191.694 92.4439,193.36 92.5,195.5C 92.3333,197.167 92.1667,198.833 92,200.5C 89.3126,205.541 87.4793,210.874 86.5,216.5C 86.7576,219.26 87.7576,221.594 89.5,223.5C 88.772,225.155 88.6053,226.821 89,228.5C 91.242,225.036 93.742,221.703 96.5,218.5C 98.3904,213.718 100.557,209.052 103,204.5C 106.512,203.516 108.678,201.183 109.5,197.5C 110.002,196.479 110.668,196.312 111.5,197C 114.106,198.938 115.939,201.438 117,204.5C 119.078,210.732 120.745,217.066 122,223.5C 125.667,230.167 129.333,236.833 133,243.5C 136.187,256.727 140.354,269.56 145.5,282C 152.833,282.667 160.167,282.667 167.5,282C 172.133,273.567 175.8,264.734 178.5,255.5C 178.457,254.584 178.124,253.917 177.5,253.5C 189.061,242.905 191.227,230.572 184,216.5C 179.264,212.418 174.431,208.751 169.5,205.5C 173.981,206.975 177.981,209.309 181.5,212.5C 184.045,206.415 187.379,200.749 191.5,195.5C 194.419,194.068 195.752,195.068 195.5,198.5C 194.414,198.62 193.747,199.287 193.5,200.5C 191.909,211.764 191.076,223.097 191,234.5C 190.542,253.257 184.709,270.09 173.5,285C 173.833,285.333 174.167,285.667 174.5,286C 172.129,288.706 169.463,291.039 166.5,293C 159.776,293.774 153.11,293.441 146.5,292C 145.122,290.287 143.455,288.953 141.5,288C 136.511,287.251 131.511,286.585 126.5,286C 128.058,285.79 129.391,285.29 130.5,284.5C 132.167,284.5 133.833,284.5 135.5,284.5C 138.522,284.196 141.522,283.696 144.5,283C 142.939,282.682 141.772,281.849 141,280.5C 136.735,268.703 133.068,256.703 130,244.5C 123.084,233.666 118.084,221.999 115,209.5C 112.097,200.841 108.764,200.508 105,208.5C 103.36,212.392 102.027,216.392 101,220.5C 100.667,219.167 100.333,217.833 100,216.5C 97.2996,222.854 93.4663,228.354 88.5,233C 86.8333,233.667 85.1667,233.667 83.5,233C 82.7454,230.825 81.912,228.659 81,226.5C 79.7469,231.338 80.9136,235.338 84.5,238.5C 78.7053,235.598 76.3719,231.098 77.5,225C 80.1971,213.17 84.5305,201.67 90.5,190.5 Z"/></g>
<g><path style="opacity:1" fill="#3a3a3a" d="M 169.5,205.5 C 174.431,208.751 179.264,212.418 184,216.5C 191.227,230.572 189.061,242.905 177.5,253.5C 175.193,254.653 172.86,255.82 170.5,257C 148.272,260.613 136.605,251.113 135.5,228.5C 137.888,217.112 144.555,209.445 155.5,205.5C 160.142,204.327 164.809,204.327 169.5,205.5 Z"/></g>
<g><path style="opacity:1" fill="#d3d3d3" d="M 156.5,214.5 C 172.489,212.656 179.655,219.656 178,235.5C 172.929,248.622 164.096,252.122 151.5,246C 144.656,238.044 143.822,229.544 149,220.5C 151.114,217.879 153.614,215.879 156.5,214.5 Z"/></g>
<g><path style="opacity:1" fill="#a8a9a9" d="M 206.5,197.5 C 211.46,207.167 214.46,216.667 215.5,226C 214.587,235.939 210.087,238.106 202,232.5C 201.384,239.251 199.884,245.917 197.5,252.5C 196.876,252.083 196.543,251.416 196.5,250.5C 199.581,236.618 200.248,222.618 198.5,208.5C 199.742,214.025 200.909,219.692 202,225.5C 203.841,228.178 206.341,229.845 209.5,230.5C 210.34,225.182 210.173,219.848 209,214.5C 205.868,209.4 203.702,203.9 202.5,198C 203.129,195.289 204.295,195.455 206,198.5C 206.399,198.272 206.565,197.938 206.5,197.5 Z"/></g>
<g><path style="opacity:0.998" fill="#c5c5c5" d="M 122.5,283.5 C 121.833,283.5 121.167,283.5 120.5,283.5C 119.761,283.369 119.094,283.536 118.5,284C 123.274,289.455 128.607,294.455 134.5,299C 154.745,305.658 171.079,300.492 183.5,283.5C 179.907,294.98 172.407,301.646 161,303.5C 159.667,304.167 158.333,304.833 157,305.5C 151.545,305.28 145.879,305.28 140,305.5C 129.254,303.3 120.921,297.633 115,288.5C 104.086,270.591 97.253,251.258 94.5,230.5C 95.1217,229.373 95.955,228.373 97,227.5C 103.723,236.374 107.723,246.374 109,257.5C 115.508,265.526 120.008,274.192 122.5,283.5 Z"/></g>
<g><path style="opacity:1" fill="#898989" d="M 135.5,284.5 C 133.833,284.5 132.167,284.5 130.5,284.5C 126.958,284.813 123.625,284.479 120.5,283.5C 121.167,283.5 121.833,283.5 122.5,283.5C 123.756,283.539 124.756,283.039 125.5,282C 120.97,272.437 115.804,263.271 110,254.5C 109.504,245.674 107.671,237.174 104.5,229C 104.712,225.265 106.045,222.099 108.5,219.5C 121.192,239.561 130.192,261.228 135.5,284.5 Z"/></g>
<g><path style="opacity:1" fill="#9b9b9b" d="M 195.5,198.5 C 197.277,201.505 198.277,204.838 198.5,208.5C 200.248,222.618 199.581,236.618 196.5,250.5C 196.543,251.416 196.876,252.083 197.5,252.5C 198.706,253.88 198.373,255.047 196.5,256C 197.458,257.147 197.125,258.147 195.5,259C 195.833,259.333 196.167,259.667 196.5,260C 193.337,266.816 190.17,273.649 187,280.5C 185.961,281.71 184.794,282.71 183.5,283.5C 171.079,300.492 154.745,305.658 134.5,299C 128.607,294.455 123.274,289.455 118.5,284C 119.094,283.536 119.761,283.369 120.5,283.5C 123.625,284.479 126.958,284.813 130.5,284.5C 129.391,285.29 128.058,285.79 126.5,286C 131.511,286.585 136.511,287.251 141.5,288C 143.455,288.953 145.122,290.287 146.5,292C 153.11,293.441 159.776,293.774 166.5,293C 169.463,291.039 172.129,288.706 174.5,286C 174.167,285.667 173.833,285.333 173.5,285C 184.709,270.09 190.542,253.257 191,234.5C 191.076,223.097 191.909,211.764 193.5,200.5C 193.747,199.287 194.414,198.62 195.5,198.5 Z"/></g>
</svg>
