<svg width="151" height="181" viewBox="0 0 151 181" fill="none" xmlns="http://www.w3.org/2000/svg">
<g id="Group" opacity="0.3">
<path id="Vector" fill-rule="evenodd" clip-rule="evenodd" d="M143.159 30.5865L141.338 33.3198L146.149 43.3418L113.253 154.885L111.172 153.714L112.863 137.704L105.711 135.101L99.0798 146.945L93.8788 147.857L81.7864 180.786H81.3962L87.5075 159.05L85.9471 158.139L92.4484 135.232L78.1456 134.971L72.9445 140.568L63.7127 142L57.8615 134.32L49.1498 135.101L37.8375 124.949L30.296 137.704L19.5038 139.657L5.98111 172.846H2.99052L-6.10352e-05 171.935L36.9274 59.8715L39.918 59.481L45.6391 43.2116L41.8683 42.1704L52.7905 17.7011L130.806 0L150.05 33.8404L147.97 37.6149L143.159 30.5865Z" fill="#070512"/>
<path id="Vector_2" fill-rule="evenodd" clip-rule="evenodd" d="M130.806 0L122.354 23.2978V29.285L119.754 40.8688L115.983 43.3418L117.413 51.5416L87.8975 157.358L88.5476 157.879L81.3962 180.786H81.7863L94.9189 144.993L99.0798 146.945L106.491 133.279L120.144 123.518L112.472 153.453L113.253 154.885L146.149 43.3418L141.338 33.3198L143.159 30.5865L147.97 37.6149L150.05 33.8404L130.806 0Z" fill="#AEE0E2"/>
<path id="Vector_3" fill-rule="evenodd" clip-rule="evenodd" d="M41.8683 42.1704L44.9889 44.9037L122.354 29.285L141.468 60.3922L122.354 23.2979L41.8683 42.1704Z" fill="#479CF2"/>
<path id="Vector_4" fill-rule="evenodd" clip-rule="evenodd" d="M142.899 36.704L147.969 37.6151L143.159 30.5867L141.338 33.3199L142.899 36.704Z" fill="#040510"/>
<path id="Vector_5" fill-rule="evenodd" clip-rule="evenodd" d="M100.77 78.2235L92.4484 135.232L78.1456 134.971L72.9445 140.568L63.7127 142L57.8615 134.321L49.1498 135.101L37.8375 124.949L30.296 137.705L19.5038 139.657L5.98108 172.847H2.99049L-8.39233e-05 171.935H3.25056L19.7639 126.251L25.7451 124.559L43.9487 110.502L100.77 78.2235Z" fill="#040510"/>
<path id="Vector_6" fill-rule="evenodd" clip-rule="evenodd" d="M37.8375 124.949L33.8067 118.441L25.745 124.559L30.2959 137.704L37.8375 124.949Z" fill="#AEE0E2"/>
<path id="Vector_7" fill-rule="evenodd" clip-rule="evenodd" d="M78.1456 134.971L75.025 123.518L70.604 137.704L72.9445 140.568L78.1456 134.971Z" fill="#AEE0E2"/>
<g id="Group_2">
<g id="Group_3">
<path id="Vector_8" d="M115.89 43.0076L116.025 43.6443L39.9566 59.7635L39.8219 59.1268L115.89 43.0076Z" fill="#040510"/>
</g>
<g id="Group_4">
<path id="Vector_9" d="M81.1849 11.0803L81.7778 11.3472L70.8997 35.5624L70.3068 35.2955L81.1849 11.0803Z" fill="#040510"/>
</g>
<g id="Group_5">
<path id="Vector_10" d="M103.115 6.08504L103.72 6.32257L94.4653 29.9516L93.86 29.7141L103.115 6.08504Z" fill="#040510"/>
</g>
<g id="Group_6">
<path id="Vector_11" d="M126.638 10.844L126.783 11.4785L99.0224 17.832L98.8775 17.1976L126.638 10.844Z" fill="#040510"/>
</g>
<g id="Group_7">
<path id="Vector_12" d="M50.1111 57.1449L50.7278 57.3507L29.0606 122.424L28.4439 122.218L50.1111 57.1449Z" fill="#040510"/>
</g>
<g id="Group_8">
<path id="Vector_13" d="M114.281 62.1326L114.389 62.7744L44.766 74.5134L44.6581 73.8716L114.281 62.1326Z" fill="#040510"/>
</g>
<g id="Group_9">
<path id="Vector_14" d="M86.4162 49.3769L87.0408 49.5574L81.7046 68.0653L81.0799 67.8848L86.4162 49.3769Z" fill="#040510"/>
</g>
<g id="Group_10">
<path id="Vector_15" d="M68.3086 96.2841L68.4737 96.9135L34.3925 105.869L34.2274 105.24L68.3086 96.2841Z" fill="#040510"/>
</g>
</g>
<g id="Group_11">
<path id="Vector_16" d="M90.4979 66.6396L89.8478 66.5094L91.2782 59.8715L83.4765 61.5635L83.3465 60.9127L92.1884 58.9604L90.4979 66.6396Z" fill="#040510"/>
</g>
<g id="Group_12">
<path id="Vector_17" d="M110.243 78.0933L128.871 102.666L128.353 103.059L109.725 78.4867L110.243 78.0933Z" fill="#040510"/>
</g>
<path id="Vector_18" fill-rule="evenodd" clip-rule="evenodd" d="M112.862 137.704L120.144 123.518L106.491 133.279L105.711 135.101L112.862 137.704Z" fill="#040510"/>
<g id="Group_13">
<path id="Vector_19" d="M122.614 94.7533L122.094 94.493L130.026 69.373L136.527 76.6617L136.007 77.0522L130.286 70.6745L122.614 94.7533Z" fill="#040510"/>
</g>
<path id="Vector_20" opacity="0.2" fill-rule="evenodd" clip-rule="evenodd" d="M132.236 2.34283L124.695 27.7232L134.447 46.5957L143.159 21.736L132.236 2.34283Z" fill="#ECDEDD"/>
<path id="Vector_21" opacity="0.2" fill-rule="evenodd" clip-rule="evenodd" d="M131.976 45.0338L110.002 118.962L112.862 120.134L128.596 70.0237L130.676 76.6616L120.144 110.762L124.695 116.359L141.468 60.3922L131.976 45.0338Z" fill="#ECDEDD"/>
<path id="Vector_22" opacity="0.2" fill-rule="evenodd" clip-rule="evenodd" d="M116.503 54.7955L122.354 61.6938L110.002 105.556L103.371 101.912L116.503 54.7955Z" fill="#ECDEDD"/>
<path id="Vector_23" opacity="0.5" fill-rule="evenodd" clip-rule="evenodd" d="M130.806 6.10352e-05L122.354 23.2979L98.9497 28.7644L107.011 5.46659L130.806 6.10352e-05Z" fill="#AE9AFF"/>
<path id="Vector_24" opacity="0.5" fill-rule="evenodd" clip-rule="evenodd" d="M106.621 32.5389L88.2876 85.382L100.77 78.2235L94.1387 128.073L97.7794 121.695L117.413 51.5416L114.423 43.6021L120.144 39.4372L122.354 29.285L106.621 32.5389Z" fill="#AE9AFF"/>
<path id="Vector_25" opacity="0.5" fill-rule="evenodd" clip-rule="evenodd" d="M77.8855 91.2391L88.2876 54.7955L78.1455 56.2272L62.5424 99.9595L77.8855 91.2391Z" fill="#AE9AFF"/>
<path id="Vector_26" fill-rule="evenodd" clip-rule="evenodd" d="M44.7288 90.5882L46.1591 77.3123H47.8494V90.5882H44.7288Z" fill="#162C4A"/>
<path id="Vector_27" fill-rule="evenodd" clip-rule="evenodd" d="M50.32 87.4645V85.382L51.3602 84.8614V87.4645H50.32Z" fill="#162C4A"/>
<path id="Vector_28" fill-rule="evenodd" clip-rule="evenodd" d="M61.8923 86.1629L64.8829 81.3472H67.4834L64.7528 86.1629H61.8923Z" fill="#162C4A"/>
<path id="Vector_29" fill-rule="evenodd" clip-rule="evenodd" d="M89.3278 20.6947L91.6683 14.4473L94.1388 13.2759L89.3278 20.6947Z" fill="#162C4A"/>
<path id="Vector_30" fill-rule="evenodd" clip-rule="evenodd" d="M105.711 55.8368V50.5004L107.531 53.2337L105.711 55.8368Z" fill="#162C4A"/>
<path id="Vector_31" fill-rule="evenodd" clip-rule="evenodd" d="M75.155 38.7863L74.2448 34.6213L84.1268 32.2785L86.0771 36.5736L75.155 38.7863Z" fill="#47FFF2"/>
<path id="Vector_32" fill-rule="evenodd" clip-rule="evenodd" d="M88.4176 36.1833L86.9873 31.6278L97.1293 29.285L98.6896 34.2309L88.4176 36.1833Z" fill="#47FFF2"/>
<path id="Vector_33" fill-rule="evenodd" clip-rule="evenodd" d="M101.81 33.4499L102.46 28.1135L104.281 27.5929L102.98 33.1896L101.81 33.4499Z" fill="#47FFF2"/>
<g id="Vector_34" style="mix-blend-mode:screen">
<path fill-rule="evenodd" clip-rule="evenodd" d="M121.834 37.6151C121.444 47.8974 103.631 55.5765 81.9164 54.7956C60.3321 54.0147 43.0387 45.0339 43.4287 34.7517C43.8188 24.4694 61.6323 16.7902 83.3467 17.5711C104.931 18.3521 122.224 27.3328 121.834 37.6151Z" fill="url(#paint0_radial_204_928)"/>
</g>
</g>
<defs>
<radialGradient id="paint0_radial_204_928" cx="0" cy="0" r="1" gradientUnits="userSpaceOnUse" gradientTransform="translate(82.6624 36.174) rotate(2.0978) scale(39.2143 18.6507)">
<stop stop-color="#3300B3"/>
<stop offset="0.2337" stop-color="#23007C"/>
<stop offset="0.4901" stop-color="#140047"/>
<stop offset="0.7127" stop-color="#090020"/>
<stop offset="0.89" stop-color="#020009"/>
<stop offset="1"/>
</radialGradient>
</defs>
</svg>
