<svg width="24" height="24" viewBox="0 0 24 24" fill="none" xmlns="http://www.w3.org/2000/svg">
<g id="Frame">
<path id="Vector" d="M6.49029 3.34619V5.50965M16.5864 3.34619V5.50965M2.88452 18.4904V7.67311C2.88452 7.09933 3.11246 6.54904 3.51818 6.14332C3.92391 5.73759 4.4742 5.50965 5.04798 5.50965H18.0288C18.6025 5.50965 19.1528 5.73759 19.5585 6.14332C19.9643 6.54904 20.1922 7.09933 20.1922 7.67311V18.4904M2.88452 18.4904C2.88452 19.0642 3.11246 19.6145 3.51818 20.0202C3.92391 20.4259 4.4742 20.6539 5.04798 20.6539H18.0288C18.6025 20.6539 19.1528 20.4259 19.5585 20.0202C19.9643 19.6145 20.1922 19.0642 20.1922 18.4904M2.88452 18.4904V11.2789C2.88452 10.7051 3.11246 10.1548 3.51818 9.74909C3.92391 9.34336 4.4742 9.11542 5.04798 9.11542H18.0288C18.6025 9.11542 19.1528 9.34336 19.5585 9.74909C19.9643 10.1548 20.1922 10.7051 20.1922 11.2789V18.4904M11.5384 12.7212H11.5461V12.7289H11.5384V12.7212ZM11.5384 14.8847H11.5461V14.8923H11.5384V14.8847ZM11.5384 17.0481H11.5461V17.0558H11.5384V17.0481ZM9.37491 14.8847H9.3826V14.8923H9.37491V14.8847ZM9.37491 17.0481H9.3826V17.0558H9.37491V17.0481ZM7.21144 14.8847H7.21914V14.8923H7.21144V14.8847ZM7.21144 17.0481H7.21914V17.0558H7.21144V17.0481ZM13.7018 12.7212H13.7095V12.7289H13.7018V12.7212ZM13.7018 14.8847H13.7095V14.8923H13.7018V14.8847ZM13.7018 17.0481H13.7095V17.0558H13.7018V17.0481ZM15.8653 12.7212H15.873V12.7289H15.8653V12.7212ZM15.8653 14.8847H15.873V14.8923H15.8653V14.8847Z" stroke="white" stroke-width="1.73077" stroke-linecap="round" stroke-linejoin="round"/>
</g>
</svg>
