<svg width="63" height="62" viewBox="0 0 63 62" fill="none" xmlns="http://www.w3.org/2000/svg">
<circle cx="31.0859" cy="31" r="30" stroke="#CCAA60" stroke-width="2"/>
<path d="M31 22C26.6 22 23 25.6 23 30C23 35.4 30 41.5 30.3 41.8C30.7 42.1 31.2 42.1 31.6 41.8C32 41.5 39 35.4 39 30C39 25.6 35.4 22 31 22ZM31 34C28.8 34 27 32.2 27 30C27 27.8 28.8 26 31 26C33.2 26 35 27.8 35 30C35 32.2 33.2 34 31 34Z" fill="url(#paint0_linear_233_540)"/>
<defs>
<linearGradient id="paint0_linear_233_540" x1="31" y1="22" x2="31" y2="42.025" gradientUnits="userSpaceOnUse">
<stop stop-color="#81CDCE"/>
<stop offset="0.484375" stop-color="#83AF66"/>
<stop offset="1" stop-color="#D58E56"/>
</linearGradient>
</defs>
</svg>
