<svg width="62" height="62" viewBox="0 0 62 62" fill="none" xmlns="http://www.w3.org/2000/svg">
<g id="Icon">
<circle id="Background" cx="31" cy="31" r="30" stroke="#CCAA60" stroke-width="2"/>
<g id="Icon_2">
<path id="Vector" d="M39.3571 24.7998H22.6429C22.4724 24.7998 22.3088 24.8688 22.1883 24.9915C22.0677 25.1143 22 25.2808 22 25.4544V38.5453C22 38.7189 22.0677 38.8853 22.1883 39.0081C22.3088 39.1308 22.4724 39.1998 22.6429 39.1998H39.3571C39.5276 39.1998 39.6912 39.1308 39.8117 39.0081C39.9323 38.8853 40 38.7189 40 38.5453V25.4544C40 25.2808 39.9323 25.1143 39.8117 24.9915C39.6912 24.8688 39.5276 24.7998 39.3571 24.7998ZM31.3946 33.171C31.2817 33.2603 31.1429 33.3088 31 33.3088C30.8571 33.3088 30.7183 33.2603 30.6054 33.171L24.3123 28.1875L25.1014 27.1541L31 31.8251L36.8986 27.1541L37.6877 28.1875L31.3946 33.171Z" fill="url(#paint0_linear_233_557)" fill-opacity="0.9"/>
</g>
</g>
<defs>
<linearGradient id="paint0_linear_233_557" x1="22" y1="31.9998" x2="40" y2="31.9998" gradientUnits="userSpaceOnUse">
<stop stop-color="#8CE3E6"/>
<stop offset="0.5" stop-color="#91BC5D"/>
<stop offset="1" stop-color="#F3985B"/>
</linearGradient>
</defs>
</svg>
